<?xml version="1.0" encoding="UTF-8" standalone="no"?>
<svg
   version="1.1"
   id="main_outline"
   x="0px"
   y="0px"
   viewBox="0 0 640 640"
   style="enable-background:new 0 0 640 640;"
   xml:space="preserve"
   sodipodi:docname="favicon.svg"
   inkscape:version="1.2.2 (b0a8486541, 2022-12-01)"
   xmlns:inkscape="http://www.inkscape.org/namespaces/inkscape"
   xmlns:sodipodi="http://sodipodi.sourceforge.net/DTD/sodipodi-0.dtd"
   xmlns="http://www.w3.org/2000/svg"
   xmlns:svg="http://www.w3.org/2000/svg"><defs
   id="defs16" /><sodipodi:namedview
   id="namedview14"
   pagecolor="#ffffff"
   bordercolor="#000000"
   borderopacity="0.25"
   inkscape:showpageshadow="2"
   inkscape:pageopacity="0.0"
   inkscape:pagecheckerboard="0"
   inkscape:deskcolor="#d1d1d1"
   showgrid="false"
   inkscape:zoom="1.6046875"
   inkscape:cx="243.97274"
   inkscape:cy="319.68841"
   inkscape:window-width="3840"
   inkscape:window-height="2092"
   inkscape:window-x="1080"
   inkscape:window-y="0"
   inkscape:window-maximized="1"
   inkscape:current-layer="g9" />
<g
   id="g11">
	<path
   id="teabag"
   style="fill:#FFFFFF"
   d="M395.9,484.2l-126.9-61c-12.5-6-17.9-21.2-11.8-33.8l61-126.9c6-12.5,21.2-17.9,33.8-11.8   c17.2,8.3,27.1,13,27.1,13l-0.1-109.2l16.7-0.1l0.1,117.1c0,0,57.4,24.2,83.1,40.1c3.7,2.3,10.2,6.8,12.9,14.4   c2.1,6.1,2,13.1-1,19.3l-61,126.9C423.6,484.9,408.4,490.3,395.9,484.2z" />
	<g
   id="g9">
		<g
   id="g7"
   style="fill:#00f0f0;fill-opacity:1">
			<path
   style="fill:#00f0f0;fill-opacity:1"
   d="M622.7,149.8c-4.1-4.1-9.6-4-9.6-4s-117.2,6.6-177.9,8c-13.3,0.3-26.5,0.6-39.6,0.7c0,39.1,0,78.2,0,117.2     c-5.5-2.6-11.1-5.3-16.6-7.9c0-36.4-0.1-109.2-0.1-109.2c-29,0.4-89.2-2.2-89.2-2.2s-141.4-7.1-156.8-8.5     c-9.8-0.6-22.5-2.1-39,1.5c-8.7,1.8-33.5,7.4-53.8,26.9C-4.9,212.4,6.6,276.2,8,285.8c1.7,11.7,6.9,44.2,31.7,72.5     c45.8,56.1,144.4,54.8,144.4,54.8s12.1,28.9,30.6,55.5c25,33.1,50.7,58.9,75.7,62c63,0,188.9-0.1,188.9-0.1s12,0.1,28.3-10.3     c14-8.5,26.5-23.4,26.5-23.4s12.9-13.8,30.9-45.3c5.5-9.7,10.1-19.1,14.1-28c0,0,55.2-117.1,55.2-231.1     C633.2,157.9,624.7,151.8,622.7,149.8z M125.6,353.9c-25.9-8.5-36.9-18.7-36.9-18.7S69.6,321.8,60,295.4     c-16.5-44.2-1.4-71.2-1.4-71.2s8.4-22.5,38.5-30c13.8-3.7,31-3.1,31-3.1s7.1,59.4,15.7,94.2c7.2,29.2,24.8,77.7,24.8,77.7     S142.5,359.9,125.6,353.9z M425.9,461.5c0,0-6.1,14.5-19.6,15.4c-5.8,0.4-10.3-1.2-10.3-1.2s-0.3-0.1-5.3-2.1l-112.9-55     c0,0-10.9-5.7-12.8-15.6c-2.2-8.1,2.7-18.1,2.7-18.1L322,273c0,0,4.8-9.7,12.2-13c0.6-0.3,2.3-1,4.5-1.5c8.1-2.1,18,2.8,18,2.8     l110.7,53.7c0,0,12.6,5.7,15.3,16.2c1.9,7.4-0.5,14-1.8,17.2C474.6,363.8,425.9,461.5,425.9,461.5z"
   id="path3" />
			
		</g>
	<g
   id="g478"
   transform="matrix(0.98338828,0,0,0.97565727,-7.1777341,146.37436)"><rect
     width="256"
     height="256"
     rx="128"
     fill="#4d0b39"
     id="rect310"
     x="265.22299"
     y="99.458618"
     style="stroke-width:2.56" /><path
     fill="#3fff19"
     d="m 338.84858,297.88422 v 0 q -7.5264,0 -13.2864,-2.7648 -5.76,-2.7648 -8.9856,-8.2944 -3.2256,-5.5296 -3.2256,-13.5168 v 0 q 0,-7.2192 2.9184,-15.8208 2.9184,-8.6016 10.5984,-17.9712 7.68,-9.3696 22.1184,-18.5856 v 0 -50.8416 h -23.1936 v -13.056 h 37.7856 v 113.8176 q 0,8.2944 -2.9952,14.3616 -2.9952,6.0672 -8.5248,9.3696 -5.5296,3.3024 -13.2096,3.3024 z m -1.0752,-13.2096 v 0 q 3.2256,0 5.76,-1.4592 2.5344,-1.4592 3.9168,-4.5312 1.3824,-3.072 1.3824,-7.5264 v 0 -35.0208 q -9.984,7.68 -14.592,14.5152 -4.608,6.8352 -5.8368,12.288 -1.2288,5.4528 -1.2288,8.832 v 0 q 0,6.4512 3.2256,9.6768 3.2256,3.2256 7.3728,3.2256 z m 63.8976,-20.1216 h -14.7456 v -107.52 h 14.7456 v 46.2336 h 56.6784 v -46.2336 h 14.7456 v 107.52 h -14.7456 v -48.2304 h -56.6784 z"
     id="path312"
     style="stroke-width:2.56" /></g></g>
</g>
</svg>
