<?xml version="1.0" encoding="UTF-8" standalone="no"?>
<svg
   version="1.1"
   id="main_outline"
   x="0px"
   y="0px"
   viewBox="0 0 640 640"
   style="enable-background:new 0 0 640 640;"
   xml:space="preserve"
   sodipodi:docname="logo.svg"
   inkscape:version="1.2.2 (b0a8486541, 2022-12-01)"
   xmlns:inkscape="http://www.inkscape.org/namespaces/inkscape"
   xmlns:sodipodi="http://sodipodi.sourceforge.net/DTD/sodipodi-0.dtd"
   xmlns="http://www.w3.org/2000/svg"
   xmlns:svg="http://www.w3.org/2000/svg"><defs
   id="defs16"><inkscape:path-effect
     effect="lattice2"
     gridpoint0="-89.525219,-78.775823"
     gridpoint1="-27.125219,-78.775823"
     gridpoint2="-89.525219,-23.755823"
     gridpoint3="-27.125219,-23.755823"
     gridpoint4="-73.925219,-78.775823"
     gridpoint5="-42.725219,-78.775823"
     gridpoint6="-73.925219,-23.755823"
     gridpoint7="-42.725219,-23.755823"
     gridpoint8x9="-58.325219,-78.775823"
     gridpoint10x11="-58.325219,-23.755823"
     gridpoint12="-89.525219,-65.020823"
     gridpoint13="-27.125219,-65.020823"
     gridpoint14="-89.525219,-37.510823"
     gridpoint15="-27.125219,-37.510823"
     gridpoint16="-73.925219,-65.020823"
     gridpoint17="-42.725219,-65.020823"
     gridpoint18="-73.925219,-37.510823"
     gridpoint19="-42.725219,-37.510823"
     gridpoint20x21="-58.325219,-65.020823"
     gridpoint22x23="-58.325219,-37.510823"
     gridpoint24x26="-89.525219,-51.265823"
     gridpoint25x27="-27.125219,-51.265823"
     gridpoint28x30="-73.925219,-51.265823"
     gridpoint29x31="-42.725219,-51.265823"
     gridpoint32x33x34x35="-58.325219,-51.265823"
     id="path-effect640"
     is_visible="true"
     lpeversion="1"
     horizontal_mirror="true"
     vertical_mirror="false"
     perimetral="false"
     live_update="false" /><inkscape:path-effect
     effect="lattice2"
     gridpoint0="-110.27264,-105.40409"
     gridpoint1="-8.3252182,-101.50925"
     gridpoint2="-107.59494,-3.9435214"
     gridpoint3="-8.3252182,-1.5092468"
     gridpoint4="-83.32522,-101.50925"
     gridpoint5="-33.325219,-101.50925"
     gridpoint6="-83.32522,-1.5092468"
     gridpoint7="-33.325219,-1.5092468"
     gridpoint8x9="-58.325219,-101.50925"
     gridpoint10x11="-58.325219,-1.5092468"
     gridpoint12="-110.02921,-76.752676"
     gridpoint13="-8.3252182,-76.509249"
     gridpoint14="-107.59494,-16.041867"
     gridpoint15="-8.3252182,-26.509248"
     gridpoint16="-83.737231,-76.509249"
     gridpoint17="-33.462556,-76.509249"
     gridpoint18="-83.737231,-26.509247"
     gridpoint19="-33.462556,-26.509247"
     gridpoint20x21="-58.599893,-76.509249"
     gridpoint22x23="-58.599893,-26.509247"
     gridpoint24x26="-109.29893,-55.404088"
     gridpoint25x27="-8.3252182,-51.509248"
     gridpoint28x30="-83.737231,-51.509248"
     gridpoint29x31="-33.462556,-51.509248"
     gridpoint32x33x34x35="-58.599893,-51.509248"
     id="path-effect638"
     is_visible="true"
     lpeversion="1"
     horizontal_mirror="false"
     vertical_mirror="false"
     perimetral="true"
     live_update="true" /><filter
     inkscape:collect="always"
     style="color-interpolation-filters:sRGB"
     id="filter3794"
     x="-0.038423748"
     y="-0.062329876"
     width="1.0768475"
     height="1.1246598"><feGaussianBlur
       inkscape:collect="always"
       stdDeviation="10.064327"
       id="feGaussianBlur3796" /></filter></defs><sodipodi:namedview
   id="namedview14"
   pagecolor="#ffffff"
   bordercolor="#000000"
   borderopacity="0.25"
   inkscape:showpageshadow="2"
   inkscape:pageopacity="0.0"
   inkscape:pagecheckerboard="0"
   inkscape:deskcolor="#d1d1d1"
   showgrid="false"
   inkscape:zoom="1.6046875"
   inkscape:cx="319.37683"
   inkscape:cy="319.68841"
   inkscape:window-width="3840"
   inkscape:window-height="2092"
   inkscape:window-x="1080"
   inkscape:window-y="0"
   inkscape:window-maximized="1"
   inkscape:current-layer="g11" />
<g
   id="g11">
	
	<g
   id="g9"
   style="fill:#4d0b39;fill-opacity:1"
   transform="matrix(0.97426281,0,0,0.97426281,8.235494,8.6692512)">
		<g
   id="g7"
   style="fill:#4d0b39;fill-opacity:1">
			<path
   style="fill:#4d0b39;fill-opacity:1"
   d="m 622.7,149.8 c -4.1,-4.1 -9.6,-4 -9.6,-4 0,0 -117.2,6.6 -177.9,8 -13.3,0.3 -26.5,0.6 -39.6,0.7 0,39.1 0,78.2 0,117.2 -5.5,-2.6 -11.1,-5.3 -16.6,-7.9 0,-36.4 -0.1,-109.2 -0.1,-109.2 -29,0.4 -89.2,-2.2 -89.2,-2.2 0,0 -141.4,-7.1 -156.8,-8.5 -9.8,-0.6 -22.5,-2.1 -39,1.5 -8.7,1.8 -33.5,7.4 -53.8,26.9 -45,40.1 -33.5,103.9 -32.1,113.5 1.7,11.7 6.9,44.2 31.7,72.5 45.8,56.1 144.4,54.8 144.4,54.8 0,0 12.1,28.9 30.6,55.5 25,33.1 50.7,58.9 75.7,62 63,0 188.9,-0.1 188.9,-0.1 0,0 12,0.1 28.3,-10.3 14,-8.5 26.5,-23.4 26.5,-23.4 0,0 12.9,-13.8 30.9,-45.3 5.5,-9.7 10.1,-19.1 14.1,-28 0,0 55.2,-117.1 55.2,-231.1 -1.1,-34.5 -9.6,-40.6 -11.6,-42.6 z M 125.6,353.9 c -25.9,-8.5 -36.9,-18.7 -36.9,-18.7 0,0 -19.1,-13.4 -28.7,-39.8 -16.5,-44.2 -1.4,-71.2 -1.4,-71.2 0,0 8.4,-22.5 38.5,-30 13.8,-3.7 31,-3.1 31,-3.1 0,0 7.1,59.4 15.7,94.2 7.2,29.2 24.8,77.7 24.8,77.7 0,0 -26.1,-3.1 -43,-9.1 z m 300.3,107.6 c 0,0 -6.1,14.5 -19.6,15.4 -5.8,0.4 -10.3,-1.2 -10.3,-1.2 0,0 -0.3,-0.1 -5.3,-2.1 l -112.9,-55 c 0,0 -10.9,-5.7 -12.8,-15.6 -2.2,-8.1 2.7,-18.1 2.7,-18.1 L 322,273 c 0,0 4.8,-9.7 12.2,-13 0.6,-0.3 2.3,-1 4.5,-1.5 8.1,-2.1 18,2.8 18,2.8 L 467.4,315 c 0,0 12.6,5.7 15.3,16.2 1.9,7.4 -0.5,14 -1.8,17.2 -6.3,15.4 -55,113.1 -55,113.1 z"
   id="path3" />
			<path
   style="fill:#4d0b39;fill-opacity:1"
   d="m 326.8,380.1 c -8.2,0.1 -15.4,5.8 -17.3,13.8 -1.9,8 2,16.3 9.1,20 7.7,4 17.5,1.8 22.7,-5.4 5.1,-7.1 4.3,-16.9 -1.8,-23.1 l 24,-49.1 c 1.5,0.1 3.7,0.2 6.2,-0.5 4.1,-0.9 7.1,-3.6 7.1,-3.6 4.2,1.8 8.6,3.8 13.2,6.1 4.8,2.4 9.3,4.9 13.4,7.3 0.9,0.5 1.8,1.1 2.8,1.9 1.6,1.3 3.4,3.1 4.7,5.5 1.9,5.5 -1.9,14.9 -1.9,14.9 -2.3,7.6 -18.4,40.6 -18.4,40.6 -8.1,-0.2 -15.3,5 -17.7,12.5 -2.6,8.1 1.1,17.3 8.9,21.3 7.8,4 17.4,1.7 22.5,-5.3 5,-6.8 4.6,-16.3 -1.1,-22.6 1.9,-3.7 3.7,-7.4 5.6,-11.3 5,-10.4 13.5,-30.4 13.5,-30.4 0.9,-1.7 5.7,-10.3 2.7,-21.3 -2.5,-11.4 -12.6,-16.7 -12.6,-16.7 -12.2,-7.9 -29.2,-15.2 -29.2,-15.2 0,0 0,-4.1 -1.1,-7.1 -1.1,-3.1 -2.8,-5.1 -3.9,-6.3 4.7,-9.7 9.4,-19.3 14.1,-29 -4.1,-2 -8.1,-4 -12.2,-6.1 -4.8,9.8 -9.7,19.7 -14.5,29.5 -6.7,-0.1 -12.9,3.5 -16.1,9.4 -3.4,6.3 -2.7,14.1 1.9,19.8 -8.2,16.8 -16.4,33.6 -24.6,50.4 z"
   id="path5" />
		</g>
	</g>
<g
   id="g298"
   style="fill:#00f0f0;fill-opacity:1"
   transform="matrix(0.97426281,0,0,0.97426281,8.235494,8.6692512)">
		<g
   id="g296"
   style="fill:#00f0f0;fill-opacity:1">
			<path
   style="fill:#00f0f0;fill-opacity:1"
   d="m 622.7,149.8 c -4.1,-4.1 -9.6,-4 -9.6,-4 0,0 -117.2,6.6 -177.9,8 -13.3,0.3 -26.5,0.6 -39.6,0.7 0,39.1 0,78.2 0,117.2 -5.5,-2.6 -11.1,-5.3 -16.6,-7.9 0,-36.4 -0.1,-109.2 -0.1,-109.2 -29,0.4 -89.2,-2.2 -89.2,-2.2 0,0 -141.4,-7.1 -156.8,-8.5 -9.8,-0.6 -22.5,-2.1 -39,1.5 -8.7,1.8 -33.5,7.4 -53.8,26.9 -45,40.1 -33.5,103.9 -32.1,113.5 1.7,11.7 6.9,44.2 31.7,72.5 45.8,56.1 144.4,54.8 144.4,54.8 0,0 12.1,28.9 30.6,55.5 25,33.1 50.7,58.9 75.7,62 63,0 188.9,-0.1 188.9,-0.1 0,0 12,0.1 28.3,-10.3 14,-8.5 26.5,-23.4 26.5,-23.4 0,0 12.9,-13.8 30.9,-45.3 5.5,-9.7 10.1,-19.1 14.1,-28 0,0 55.2,-117.1 55.2,-231.1 -1.1,-34.5 -9.6,-40.6 -11.6,-42.6 z M 125.6,353.9 c -25.9,-8.5 -36.9,-18.7 -36.9,-18.7 0,0 -19.1,-13.4 -28.7,-39.8 -16.5,-44.2 -1.4,-71.2 -1.4,-71.2 0,0 8.4,-22.5 38.5,-30 13.8,-3.7 31,-3.1 31,-3.1 0,0 7.1,59.4 15.7,94.2 7.2,29.2 24.8,77.7 24.8,77.7 0,0 -26.1,-3.1 -43,-9.1 z m 300.3,107.6 c 0,0 -6.1,14.5 -19.6,15.4 -5.8,0.4 -10.3,-1.2 -10.3,-1.2 0,0 -0.3,-0.1 -5.3,-2.1 l -112.9,-55 c 0,0 -10.9,-5.7 -12.8,-15.6 -2.2,-8.1 2.7,-18.1 2.7,-18.1 L 322,273 c 0,0 4.8,-9.7 12.2,-13 0.6,-0.3 2.3,-1 4.5,-1.5 8.1,-2.1 18,2.8 18,2.8 L 467.4,315 c 0,0 12.6,5.7 15.3,16.2 1.9,7.4 -0.5,14 -1.8,17.2 -6.3,15.4 -55,113.1 -55,113.1 z"
   id="path292" />
			<path
   style="fill:#00f0f0;fill-opacity:1"
   d="m 326.8,380.1 c -8.2,0.1 -15.4,5.8 -17.3,13.8 -1.9,8 2,16.3 9.1,20 7.7,4 17.5,1.8 22.7,-5.4 5.1,-7.1 4.3,-16.9 -1.8,-23.1 l 24,-49.1 c 1.5,0.1 3.7,0.2 6.2,-0.5 4.1,-0.9 7.1,-3.6 7.1,-3.6 4.2,1.8 8.6,3.8 13.2,6.1 4.8,2.4 9.3,4.9 13.4,7.3 0.9,0.5 1.8,1.1 2.8,1.9 1.6,1.3 3.4,3.1 4.7,5.5 1.9,5.5 -1.9,14.9 -1.9,14.9 -2.3,7.6 -18.4,40.6 -18.4,40.6 -8.1,-0.2 -15.3,5 -17.7,12.5 -2.6,8.1 1.1,17.3 8.9,21.3 7.8,4 17.4,1.7 22.5,-5.3 5,-6.8 4.6,-16.3 -1.1,-22.6 1.9,-3.7 3.7,-7.4 5.6,-11.3 5,-10.4 13.5,-30.4 13.5,-30.4 0.9,-1.7 5.7,-10.3 2.7,-21.3 -2.5,-11.4 -12.6,-16.7 -12.6,-16.7 -12.2,-7.9 -29.2,-15.2 -29.2,-15.2 0,0 0,-4.1 -1.1,-7.1 -1.1,-3.1 -2.8,-5.1 -3.9,-6.3 4.7,-9.7 9.4,-19.3 14.1,-29 -4.1,-2 -8.1,-4 -12.2,-6.1 -4.8,9.8 -9.7,19.7 -14.5,29.5 -6.7,-0.1 -12.9,3.5 -16.1,9.4 -3.4,6.3 -2.7,14.1 1.9,19.8 -8.2,16.8 -16.4,33.6 -24.6,50.4 z"
   id="path294" />
		</g>
	</g><g
   id="g3792"
   style="mix-blend-mode:normal;fill:#00f0f0;fill-opacity:1;filter:url(#filter3794)"
   transform="matrix(0.97426281,0,0,0.97426281,8.235494,8.6692512)">
		<g
   id="g3790"
   style="fill:#00f0f0;fill-opacity:1">
			<path
   style="fill:#00f0f0;fill-opacity:1"
   d="m 622.7,149.8 c -4.1,-4.1 -9.6,-4 -9.6,-4 0,0 -117.2,6.6 -177.9,8 -13.3,0.3 -26.5,0.6 -39.6,0.7 0,39.1 0,78.2 0,117.2 -5.5,-2.6 -11.1,-5.3 -16.6,-7.9 0,-36.4 -0.1,-109.2 -0.1,-109.2 -29,0.4 -89.2,-2.2 -89.2,-2.2 0,0 -141.4,-7.1 -156.8,-8.5 -9.8,-0.6 -22.5,-2.1 -39,1.5 -8.7,1.8 -33.5,7.4 -53.8,26.9 -45,40.1 -33.5,103.9 -32.1,113.5 1.7,11.7 6.9,44.2 31.7,72.5 45.8,56.1 144.4,54.8 144.4,54.8 0,0 12.1,28.9 30.6,55.5 25,33.1 50.7,58.9 75.7,62 63,0 188.9,-0.1 188.9,-0.1 0,0 12,0.1 28.3,-10.3 14,-8.5 26.5,-23.4 26.5,-23.4 0,0 12.9,-13.8 30.9,-45.3 5.5,-9.7 10.1,-19.1 14.1,-28 0,0 55.2,-117.1 55.2,-231.1 -1.1,-34.5 -9.6,-40.6 -11.6,-42.6 z M 125.6,353.9 c -25.9,-8.5 -36.9,-18.7 -36.9,-18.7 0,0 -19.1,-13.4 -28.7,-39.8 -16.5,-44.2 -1.4,-71.2 -1.4,-71.2 0,0 8.4,-22.5 38.5,-30 13.8,-3.7 31,-3.1 31,-3.1 0,0 7.1,59.4 15.7,94.2 7.2,29.2 24.8,77.7 24.8,77.7 0,0 -26.1,-3.1 -43,-9.1 z m 300.3,107.6 c 0,0 -6.1,14.5 -19.6,15.4 -5.8,0.4 -10.3,-1.2 -10.3,-1.2 0,0 -0.3,-0.1 -5.3,-2.1 l -112.9,-55 c 0,0 -10.9,-5.7 -12.8,-15.6 -2.2,-8.1 2.7,-18.1 2.7,-18.1 L 322,273 c 0,0 4.8,-9.7 12.2,-13 0.6,-0.3 2.3,-1 4.5,-1.5 8.1,-2.1 18,2.8 18,2.8 L 467.4,315 c 0,0 12.6,5.7 15.3,16.2 1.9,7.4 -0.5,14 -1.8,17.2 -6.3,15.4 -55,113.1 -55,113.1 z"
   id="path3786" />
			<path
   style="fill:#00f0f0;fill-opacity:1"
   d="m 326.8,380.1 c -8.2,0.1 -15.4,5.8 -17.3,13.8 -1.9,8 2,16.3 9.1,20 7.7,4 17.5,1.8 22.7,-5.4 5.1,-7.1 4.3,-16.9 -1.8,-23.1 l 24,-49.1 c 1.5,0.1 3.7,0.2 6.2,-0.5 4.1,-0.9 7.1,-3.6 7.1,-3.6 4.2,1.8 8.6,3.8 13.2,6.1 4.8,2.4 9.3,4.9 13.4,7.3 0.9,0.5 1.8,1.1 2.8,1.9 1.6,1.3 3.4,3.1 4.7,5.5 1.9,5.5 -1.9,14.9 -1.9,14.9 -2.3,7.6 -18.4,40.6 -18.4,40.6 -8.1,-0.2 -15.3,5 -17.7,12.5 -2.6,8.1 1.1,17.3 8.9,21.3 7.8,4 17.4,1.7 22.5,-5.3 5,-6.8 4.6,-16.3 -1.1,-22.6 1.9,-3.7 3.7,-7.4 5.6,-11.3 5,-10.4 13.5,-30.4 13.5,-30.4 0.9,-1.7 5.7,-10.3 2.7,-21.3 -2.5,-11.4 -12.6,-16.7 -12.6,-16.7 -12.2,-7.9 -29.2,-15.2 -29.2,-15.2 0,0 0,-4.1 -1.1,-7.1 -1.1,-3.1 -2.8,-5.1 -3.9,-6.3 4.7,-9.7 9.4,-19.3 14.1,-29 -4.1,-2 -8.1,-4 -12.2,-6.1 -4.8,9.8 -9.7,19.7 -14.5,29.5 -6.7,-0.1 -12.9,3.5 -16.1,9.4 -3.4,6.3 -2.7,14.1 1.9,19.8 -8.2,16.8 -16.4,33.6 -24.6,50.4 z"
   id="path3788" />
		</g>
	</g><g
   id="g382"
   transform="matrix(2.56,0,0,2.56,138.71859,103.19767)"><g
     id="g635"><path
       id="rect199"
       style="fill:#4d0b39"
       d="m -58.471861,-103.44603 c 13.964265,0.53503 26.437065,6.598165 35.470384,15.969146 9.069664,9.408683 14.6762588,22.137048 14.6762588,35.967637 0,13.672165 -5.5479508,26.531324 -14.2758868,35.506352 -4.409032,4.533854 -9.574362,8.0083744 -15.435354,10.2516631 -5.858096,2.2421802 -12.262155,3.1991885 -19.103868,3.0314973 -13.364702,-0.3275705 -23.062788,-3.2395232 -30.282068,-10.2339184 -3.784341,-3.666456 -7.150598,-8.602446 -10.608207,-15.377802 -3.464688,-6.789224 -6.887778,-15.163011 -10.704358,-25.114573 -1.37857,-3.594566 -0.80335,-8.852739 1.36137,-14.458486 2.18496,-5.658158 5.90541,-11.495074 10.838247,-16.834791 4.88802,-5.291207 10.948654,-10.068686 17.476613,-13.48197 6.542684,-3.420985 13.585737,-5.492995 20.586869,-5.224755 z"
       inkscape:path-effect="#path-effect638"
       inkscape:original-d="m -58.325218,-101.50925 c 27.7,0 49.9999998,22.300003 49.9999998,50.000003 0,27.7 -22.2999998,49.9971279 -49.9999998,50.0000002 -27.686117,0.00287 -36.925641,-15.0525592 -50.000002,-50.0000002 -4.76748,-12.74336 22.300002,-50.000003 50.000002,-50.000003 z" /><path
       fill="#3fff19"
       d="m -79.565219,-23.755823 c -1.96,0 -3.69,-0.36 -5.19,-1.08 -1.5,-0.72 -2.67,-1.8 -3.51,-3.24 -0.84,-1.44 -1.26,-3.2 -1.26,-5.28 0,-1.88 0.38,-3.94 1.14,-6.18 0.76,-2.24 2.14,-4.58 4.14,-7.02 2,-2.44 4.88,-4.86 8.64,-7.26 0.01,-6.611324 0,-19.86 0,-19.86 -3.010604,0.01 -9.06,0 -9.06,0 0.01,-1.69034 0,-5.1 0,-5.1 4.930984,0.01 14.76,0 14.76,0 0.01,14.832964 0,44.46 0,44.46 0,2.16 -0.39,4.03 -1.17,5.61 -0.78,1.58 -1.89,2.8 -3.33,3.66 -1.44,0.86 -3.16,1.29 -5.16,1.29 z m -0.42,-5.16 c 0.84,0 1.59,-0.19 2.25,-0.57 0.66,-0.38 1.17,-0.97 1.53,-1.77 0.36,-0.8 0.54,-1.78 0.54,-2.94 0.01,-4.550912 0,-13.68 0,-13.68 -2.6,2 -4.5,3.89 -5.7,5.67 -1.2,1.78 -1.96,3.38 -2.28,4.8 -0.32,1.42 -0.48,2.57 -0.48,3.45 0,1.68 0.42,2.94 1.26,3.78 0.84,0.84 1.8,1.26 2.88,1.26 z m 24.96,-7.86 c -1.910384,0.01 -5.76,0 -5.76,0 0.01,-13.9928 0,-42 0,-42 1.930384,0.01 5.76,0 5.76,0 0.01,6.031204 0,18.06 0,18.06 7.391476,0.01 22.14,0 22.14,0 0.01,-6.011204 0,-18.06 0,-18.06 1.930384,0.01 5.76,0 5.76,0 0.01,14.0128 0,42 0,42 -1.910384,0.01 -5.76,0 -5.76,0 0.01,-6.271256 0,-18.84 0,-18.84 -7.371476,0.01 -22.14,0 -22.14,0 z"
       id="path201"
       inkscape:path-effect="#path-effect640"
       inkscape:original-d="m -79.565219,-23.755823 v 0 q -2.94,0 -5.19,-1.08 -2.25,-1.08 -3.51,-3.24 -1.26,-2.16 -1.26,-5.28 v 0 q 0,-2.82 1.14,-6.18 1.14,-3.36 4.14,-7.02 3,-3.66 8.64,-7.26 v 0 -19.86 h -9.06 v -5.1 h 14.76 v 44.46 q 0,3.24 -1.17,5.61 -1.17,2.37 -3.33,3.66 -2.16,1.29 -5.16,1.29 z m -0.42,-5.16 v 0 q 1.26,0 2.25,-0.57 0.99,-0.57 1.53,-1.77 0.54,-1.2 0.54,-2.94 v 0 -13.68 q -3.9,3 -5.7,5.67 -1.8,2.67 -2.28,4.8 -0.48,2.13 -0.48,3.45 v 0 q 0,2.52 1.26,3.78 1.26,1.26 2.88,1.26 z m 24.96,-7.86 h -5.76 v -42 h 5.76 v 18.06 h 22.14 v -18.06 h 5.76 v 42 h -5.76 v -18.84 h -22.14 z" /></g></g></g>
</svg>
