<?xml version="1.0" encoding="UTF-8" standalone="no"?>
<svg
   version="1.1"
   id="main_outline"
   x="0px"
   y="0px"
   viewBox="0 0 640 640"
   style="enable-background:new 0 0 640 640;"
   xml:space="preserve"
   sodipodi:docname="logo.svg"
   inkscape:version="1.2.2 (b0a8486541, 2022-12-01)"
   xmlns:inkscape="http://www.inkscape.org/namespaces/inkscape"
   xmlns:sodipodi="http://sodipodi.sourceforge.net/DTD/sodipodi-0.dtd"
   xmlns="http://www.w3.org/2000/svg"
   xmlns:svg="http://www.w3.org/2000/svg"><defs
   id="defs16"><rect
     x="176.35833"
     y="-36.767283"
     width="110.30185"
     height="162.64849"
     id="rect577" /><filter
     inkscape:collect="always"
     style="color-interpolation-filters:sRGB"
     id="filter3794"
     x="-0.038423748"
     y="-0.062329876"
     width="1.0768475"
     height="1.1246598"><feGaussianBlur
       inkscape:collect="always"
       stdDeviation="10.064327"
       id="feGaussianBlur3796" /></filter></defs><sodipodi:namedview
   id="namedview14"
   pagecolor="#ffffff"
   bordercolor="#000000"
   borderopacity="0.25"
   inkscape:showpageshadow="2"
   inkscape:pageopacity="0.0"
   inkscape:pagecheckerboard="0"
   inkscape:deskcolor="#d1d1d1"
   showgrid="false"
   inkscape:zoom="1.6046875"
   inkscape:cx="319.37683"
   inkscape:cy="319.68841"
   inkscape:window-width="3840"
   inkscape:window-height="2092"
   inkscape:window-x="1080"
   inkscape:window-y="0"
   inkscape:window-maximized="1"
   inkscape:current-layer="g11" />
<g
   id="g11">
	
	<g
   id="g9"
   style="fill:#4d0b39;fill-opacity:1"
   transform="matrix(0.97426281,0,0,0.97426281,8.235494,8.6692512)">
		<g
   id="g7"
   style="fill:#4d0b39;fill-opacity:1">
			<path
   style="fill:#4d0b39;fill-opacity:1"
   d="m 622.7,149.8 c -4.1,-4.1 -9.6,-4 -9.6,-4 0,0 -117.2,6.6 -177.9,8 -13.3,0.3 -26.5,0.6 -39.6,0.7 0,39.1 0,78.2 0,117.2 -5.5,-2.6 -11.1,-5.3 -16.6,-7.9 0,-36.4 -0.1,-109.2 -0.1,-109.2 -29,0.4 -89.2,-2.2 -89.2,-2.2 0,0 -141.4,-7.1 -156.8,-8.5 -9.8,-0.6 -22.5,-2.1 -39,1.5 -8.7,1.8 -33.5,7.4 -53.8,26.9 -45,40.1 -33.5,103.9 -32.1,113.5 1.7,11.7 6.9,44.2 31.7,72.5 45.8,56.1 144.4,54.8 144.4,54.8 0,0 12.1,28.9 30.6,55.5 25,33.1 50.7,58.9 75.7,62 63,0 188.9,-0.1 188.9,-0.1 0,0 12,0.1 28.3,-10.3 14,-8.5 26.5,-23.4 26.5,-23.4 0,0 12.9,-13.8 30.9,-45.3 5.5,-9.7 10.1,-19.1 14.1,-28 0,0 55.2,-117.1 55.2,-231.1 -1.1,-34.5 -9.6,-40.6 -11.6,-42.6 z M 125.6,353.9 c -25.9,-8.5 -36.9,-18.7 -36.9,-18.7 0,0 -19.1,-13.4 -28.7,-39.8 -16.5,-44.2 -1.4,-71.2 -1.4,-71.2 0,0 8.4,-22.5 38.5,-30 13.8,-3.7 31,-3.1 31,-3.1 0,0 7.1,59.4 15.7,94.2 7.2,29.2 24.8,77.7 24.8,77.7 0,0 -26.1,-3.1 -43,-9.1 z m 300.3,107.6 c 0,0 -6.1,14.5 -19.6,15.4 -5.8,0.4 -10.3,-1.2 -10.3,-1.2 0,0 -0.3,-0.1 -5.3,-2.1 l -112.9,-55 c 0,0 -10.9,-5.7 -12.8,-15.6 -2.2,-8.1 2.7,-18.1 2.7,-18.1 L 322,273 c 0,0 4.8,-9.7 12.2,-13 0.6,-0.3 2.3,-1 4.5,-1.5 8.1,-2.1 18,2.8 18,2.8 L 467.4,315 c 0,0 12.6,5.7 15.3,16.2 1.9,7.4 -0.5,14 -1.8,17.2 -6.3,15.4 -55,113.1 -55,113.1 z"
   id="path3" />
			<path
   style="fill:#4d0b39;fill-opacity:1"
   d="m 326.8,380.1 c -8.2,0.1 -15.4,5.8 -17.3,13.8 -1.9,8 2,16.3 9.1,20 7.7,4 17.5,1.8 22.7,-5.4 5.1,-7.1 4.3,-16.9 -1.8,-23.1 l 24,-49.1 c 1.5,0.1 3.7,0.2 6.2,-0.5 4.1,-0.9 7.1,-3.6 7.1,-3.6 4.2,1.8 8.6,3.8 13.2,6.1 4.8,2.4 9.3,4.9 13.4,7.3 0.9,0.5 1.8,1.1 2.8,1.9 1.6,1.3 3.4,3.1 4.7,5.5 1.9,5.5 -1.9,14.9 -1.9,14.9 -2.3,7.6 -18.4,40.6 -18.4,40.6 -8.1,-0.2 -15.3,5 -17.7,12.5 -2.6,8.1 1.1,17.3 8.9,21.3 7.8,4 17.4,1.7 22.5,-5.3 5,-6.8 4.6,-16.3 -1.1,-22.6 1.9,-3.7 3.7,-7.4 5.6,-11.3 5,-10.4 13.5,-30.4 13.5,-30.4 0.9,-1.7 5.7,-10.3 2.7,-21.3 -2.5,-11.4 -12.6,-16.7 -12.6,-16.7 -12.2,-7.9 -29.2,-15.2 -29.2,-15.2 0,0 0,-4.1 -1.1,-7.1 -1.1,-3.1 -2.8,-5.1 -3.9,-6.3 4.7,-9.7 9.4,-19.3 14.1,-29 -4.1,-2 -8.1,-4 -12.2,-6.1 -4.8,9.8 -9.7,19.7 -14.5,29.5 -6.7,-0.1 -12.9,3.5 -16.1,9.4 -3.4,6.3 -2.7,14.1 1.9,19.8 -8.2,16.8 -16.4,33.6 -24.6,50.4 z"
   id="path5" />
		</g>
	</g>
<g
   id="g298"
   style="fill:#00f0f0;fill-opacity:1"
   transform="matrix(0.97426281,0,0,0.97426281,8.235494,8.6692512)">
		<g
   id="g296"
   style="fill:#00f0f0;fill-opacity:1">
			<path
   style="fill:#00f0f0;fill-opacity:1"
   d="m 622.7,149.8 c -4.1,-4.1 -9.6,-4 -9.6,-4 0,0 -117.2,6.6 -177.9,8 -13.3,0.3 -26.5,0.6 -39.6,0.7 0,39.1 0,78.2 0,117.2 -5.5,-2.6 -11.1,-5.3 -16.6,-7.9 0,-36.4 -0.1,-109.2 -0.1,-109.2 -29,0.4 -89.2,-2.2 -89.2,-2.2 0,0 -141.4,-7.1 -156.8,-8.5 -9.8,-0.6 -22.5,-2.1 -39,1.5 -8.7,1.8 -33.5,7.4 -53.8,26.9 -45,40.1 -33.5,103.9 -32.1,113.5 1.7,11.7 6.9,44.2 31.7,72.5 45.8,56.1 144.4,54.8 144.4,54.8 0,0 12.1,28.9 30.6,55.5 25,33.1 50.7,58.9 75.7,62 63,0 188.9,-0.1 188.9,-0.1 0,0 12,0.1 28.3,-10.3 14,-8.5 26.5,-23.4 26.5,-23.4 0,0 12.9,-13.8 30.9,-45.3 5.5,-9.7 10.1,-19.1 14.1,-28 0,0 55.2,-117.1 55.2,-231.1 -1.1,-34.5 -9.6,-40.6 -11.6,-42.6 z M 125.6,353.9 c -25.9,-8.5 -36.9,-18.7 -36.9,-18.7 0,0 -19.1,-13.4 -28.7,-39.8 -16.5,-44.2 -1.4,-71.2 -1.4,-71.2 0,0 8.4,-22.5 38.5,-30 13.8,-3.7 31,-3.1 31,-3.1 0,0 7.1,59.4 15.7,94.2 7.2,29.2 24.8,77.7 24.8,77.7 0,0 -26.1,-3.1 -43,-9.1 z m 300.3,107.6 c 0,0 -6.1,14.5 -19.6,15.4 -5.8,0.4 -10.3,-1.2 -10.3,-1.2 0,0 -0.3,-0.1 -5.3,-2.1 l -112.9,-55 c 0,0 -10.9,-5.7 -12.8,-15.6 -2.2,-8.1 2.7,-18.1 2.7,-18.1 L 322,273 c 0,0 4.8,-9.7 12.2,-13 0.6,-0.3 2.3,-1 4.5,-1.5 8.1,-2.1 18,2.8 18,2.8 L 467.4,315 c 0,0 12.6,5.7 15.3,16.2 1.9,7.4 -0.5,14 -1.8,17.2 -6.3,15.4 -55,113.1 -55,113.1 z"
   id="path292" />
			<path
   style="fill:#00f0f0;fill-opacity:1"
   d="m 326.8,380.1 c -8.2,0.1 -15.4,5.8 -17.3,13.8 -1.9,8 2,16.3 9.1,20 7.7,4 17.5,1.8 22.7,-5.4 5.1,-7.1 4.3,-16.9 -1.8,-23.1 l 24,-49.1 c 1.5,0.1 3.7,0.2 6.2,-0.5 4.1,-0.9 7.1,-3.6 7.1,-3.6 4.2,1.8 8.6,3.8 13.2,6.1 4.8,2.4 9.3,4.9 13.4,7.3 0.9,0.5 1.8,1.1 2.8,1.9 1.6,1.3 3.4,3.1 4.7,5.5 1.9,5.5 -1.9,14.9 -1.9,14.9 -2.3,7.6 -18.4,40.6 -18.4,40.6 -8.1,-0.2 -15.3,5 -17.7,12.5 -2.6,8.1 1.1,17.3 8.9,21.3 7.8,4 17.4,1.7 22.5,-5.3 5,-6.8 4.6,-16.3 -1.1,-22.6 1.9,-3.7 3.7,-7.4 5.6,-11.3 5,-10.4 13.5,-30.4 13.5,-30.4 0.9,-1.7 5.7,-10.3 2.7,-21.3 -2.5,-11.4 -12.6,-16.7 -12.6,-16.7 -12.2,-7.9 -29.2,-15.2 -29.2,-15.2 0,0 0,-4.1 -1.1,-7.1 -1.1,-3.1 -2.8,-5.1 -3.9,-6.3 4.7,-9.7 9.4,-19.3 14.1,-29 -4.1,-2 -8.1,-4 -12.2,-6.1 -4.8,9.8 -9.7,19.7 -14.5,29.5 -6.7,-0.1 -12.9,3.5 -16.1,9.4 -3.4,6.3 -2.7,14.1 1.9,19.8 -8.2,16.8 -16.4,33.6 -24.6,50.4 z"
   id="path294" />
		</g>
	</g><g
   id="g3792"
   style="mix-blend-mode:normal;fill:#00f0f0;fill-opacity:1;filter:url(#filter3794)"
   transform="matrix(0.97426281,0,0,0.97426281,8.235494,8.6692512)">
		<g
   id="g3790"
   style="fill:#00f0f0;fill-opacity:1">
			<path
   style="fill:#00f0f0;fill-opacity:1"
   d="m 622.7,149.8 c -4.1,-4.1 -9.6,-4 -9.6,-4 0,0 -117.2,6.6 -177.9,8 -13.3,0.3 -26.5,0.6 -39.6,0.7 0,39.1 0,78.2 0,117.2 -5.5,-2.6 -11.1,-5.3 -16.6,-7.9 0,-36.4 -0.1,-109.2 -0.1,-109.2 -29,0.4 -89.2,-2.2 -89.2,-2.2 0,0 -141.4,-7.1 -156.8,-8.5 -9.8,-0.6 -22.5,-2.1 -39,1.5 -8.7,1.8 -33.5,7.4 -53.8,26.9 -45,40.1 -33.5,103.9 -32.1,113.5 1.7,11.7 6.9,44.2 31.7,72.5 45.8,56.1 144.4,54.8 144.4,54.8 0,0 12.1,28.9 30.6,55.5 25,33.1 50.7,58.9 75.7,62 63,0 188.9,-0.1 188.9,-0.1 0,0 12,0.1 28.3,-10.3 14,-8.5 26.5,-23.4 26.5,-23.4 0,0 12.9,-13.8 30.9,-45.3 5.5,-9.7 10.1,-19.1 14.1,-28 0,0 55.2,-117.1 55.2,-231.1 -1.1,-34.5 -9.6,-40.6 -11.6,-42.6 z M 125.6,353.9 c -25.9,-8.5 -36.9,-18.7 -36.9,-18.7 0,0 -19.1,-13.4 -28.7,-39.8 -16.5,-44.2 -1.4,-71.2 -1.4,-71.2 0,0 8.4,-22.5 38.5,-30 13.8,-3.7 31,-3.1 31,-3.1 0,0 7.1,59.4 15.7,94.2 7.2,29.2 24.8,77.7 24.8,77.7 0,0 -26.1,-3.1 -43,-9.1 z m 300.3,107.6 c 0,0 -6.1,14.5 -19.6,15.4 -5.8,0.4 -10.3,-1.2 -10.3,-1.2 0,0 -0.3,-0.1 -5.3,-2.1 l -112.9,-55 c 0,0 -10.9,-5.7 -12.8,-15.6 -2.2,-8.1 2.7,-18.1 2.7,-18.1 L 322,273 c 0,0 4.8,-9.7 12.2,-13 0.6,-0.3 2.3,-1 4.5,-1.5 8.1,-2.1 18,2.8 18,2.8 L 467.4,315 c 0,0 12.6,5.7 15.3,16.2 1.9,7.4 -0.5,14 -1.8,17.2 -6.3,15.4 -55,113.1 -55,113.1 z"
   id="path3786" />
			<path
   style="fill:#00f0f0;fill-opacity:1"
   d="m 326.8,380.1 c -8.2,0.1 -15.4,5.8 -17.3,13.8 -1.9,8 2,16.3 9.1,20 7.7,4 17.5,1.8 22.7,-5.4 5.1,-7.1 4.3,-16.9 -1.8,-23.1 l 24,-49.1 c 1.5,0.1 3.7,0.2 6.2,-0.5 4.1,-0.9 7.1,-3.6 7.1,-3.6 4.2,1.8 8.6,3.8 13.2,6.1 4.8,2.4 9.3,4.9 13.4,7.3 0.9,0.5 1.8,1.1 2.8,1.9 1.6,1.3 3.4,3.1 4.7,5.5 1.9,5.5 -1.9,14.9 -1.9,14.9 -2.3,7.6 -18.4,40.6 -18.4,40.6 -8.1,-0.2 -15.3,5 -17.7,12.5 -2.6,8.1 1.1,17.3 8.9,21.3 7.8,4 17.4,1.7 22.5,-5.3 5,-6.8 4.6,-16.3 -1.1,-22.6 1.9,-3.7 3.7,-7.4 5.6,-11.3 5,-10.4 13.5,-30.4 13.5,-30.4 0.9,-1.7 5.7,-10.3 2.7,-21.3 -2.5,-11.4 -12.6,-16.7 -12.6,-16.7 -12.2,-7.9 -29.2,-15.2 -29.2,-15.2 0,0 0,-4.1 -1.1,-7.1 -1.1,-3.1 -2.8,-5.1 -3.9,-6.3 4.7,-9.7 9.4,-19.3 14.1,-29 -4.1,-2 -8.1,-4 -12.2,-6.1 -4.8,9.8 -9.7,19.7 -14.5,29.5 -6.7,-0.1 -12.9,3.5 -16.1,9.4 -3.4,6.3 -2.7,14.1 1.9,19.8 -8.2,16.8 -16.4,33.6 -24.6,50.4 z"
   id="path3788" />
		</g>
	</g><rect
   width="256"
   height="256"
   rx="128"
   fill="#4d0b39"
   id="rect355"
   x="18.445959"
   y="-70.044792"
   style="stroke-width:2.56" /><path
   fill="#3fff19"
   d="m 92.071559,128.38081 v 0 q -7.5264,0 -13.2864,-2.7648 -5.76,-2.7648 -8.9856,-8.2944 -3.2256,-5.5296 -3.2256,-13.5168 v 0 q 0,-7.219201 2.9184,-15.820801 2.9184,-8.6016 10.5984,-17.9712 7.68,-9.3696 22.118401,-18.5856 v 0 -50.8416 H 79.015559 v -13.056 H 116.80116 V 101.34721 q 0,8.2944 -2.9952,14.3616 -2.9952,6.0672 -8.5248,9.3696 -5.529601,3.3024 -13.209601,3.3024 z m -1.0752,-13.2096 v 0 q 3.2256,0 5.76,-1.4592 2.5344,-1.4592 3.916801,-4.5312 1.3824,-3.072 1.3824,-7.5264 v 0 -35.020801 q -9.984001,7.68 -14.592001,14.5152 -4.608,6.8352 -5.8368,12.288 -1.2288,5.4528 -1.2288,8.832001 v 0 q 0,6.4512 3.2256,9.6768 3.2256,3.2256 7.3728,3.2256 z M 154.89396,95.049609 h -14.7456 v -107.52 h 14.7456 v 46.2336 h 56.6784 v -46.2336 h 14.7456 v 107.52 h -14.7456 v -48.2304 h -56.6784 z"
   id="path357"
   style="stroke-width:2.56" /><text
   xml:space="preserve"
   id="text575"
   style="fill:#000000;font-size:42.66666667px;-inkscape-font-specification:'Courier New';font-family:'Courier New';stop-color:#000000;stroke:#0c0c0c;stroke-width:1.88976378;white-space:pre;shape-inside:url(#rect577)"><tspan
     sodipodi:role="line"
     id="tspan579"></tspan></text></g>
</svg>
