<?xml version="1.0" encoding="UTF-8" standalone="no"?>
<svg
   version="1.1"
   id="main_outline"
   x="0px"
   y="0px"
   viewBox="0 0 640 640"
   style="enable-background:new 0 0 640 640;"
   xml:space="preserve"
   sodipodi:docname="logo.svg"
   inkscape:version="1.2.2 (b0a8486541, 2022-12-01)"
   xmlns:inkscape="http://www.inkscape.org/namespaces/inkscape"
   xmlns:sodipodi="http://sodipodi.sourceforge.net/DTD/sodipodi-0.dtd"
   xmlns="http://www.w3.org/2000/svg"
   xmlns:svg="http://www.w3.org/2000/svg"><defs
   id="defs16"><inkscape:path-effect
     effect="lattice2"
     gridpoint0="198.43889,-39.916084"
     gridpoint1="298.75778,-39.597206"
     gridpoint2="198.27945,60.482513"
     gridpoint3="298.27946,60.482513"
     gridpoint4="223.35917,-39.03917"
     gridpoint5="273.27946,-39.517487"
     gridpoint6="223.27945,60.482513"
     gridpoint7="273.27946,60.482513"
     gridpoint8x9="248.59833,-38.800012"
     gridpoint10x11="248.59833,60.004197"
     gridpoint12="198.27945,-14.517487"
     gridpoint13="298.27946,-14.517487"
     gridpoint14="198.27945,35.482513"
     gridpoint15="298.27946,35.482513"
     gridpoint16="222.6417,-13.401415"
     gridpoint17="272.80114,-15.792997"
     gridpoint18="223.67805,37.794376"
     gridpoint19="272.88086,37.555218"
     gridpoint20x21="248.12002,-11.886747"
     gridpoint22x23="248.83749,41.062871"
     gridpoint24x26="199.3158,10.243355"
     gridpoint25x27="298.27946,10.482513"
     gridpoint28x30="223.27945,10.482513"
     gridpoint29x31="273.27946,10.482513"
     gridpoint32x33x34x35="248.27946,11.997182"
     id="path-effect27844"
     is_visible="true"
     lpeversion="1"
     horizontal_mirror="false"
     vertical_mirror="false"
     perimetral="false"
     live_update="true" /><inkscape:path-effect
     effect="lattice2"
     gridpoint0="335.44541,-15.615867"
     gridpoint1="392.90281,-20.558469"
     gridpoint2="335.12653,36.055919"
     gridpoint3="396.25102,37.331429"
     gridpoint4="350.88597,-15.934745"
     gridpoint5="380.49158,-17.050816"
     gridpoint6="347.53775,44.665613"
     gridpoint7="381.92653,36.055919"
     gridpoint8x9="366.48597,-15.615867"
     gridpoint10x11="366.32653,38.288062"
     gridpoint12="335.76429,-7.1223463"
     gridpoint13="394.49719,-8.078979"
     gridpoint14="335.12653,22.300919"
     gridpoint15="397.36709,29.794542"
     gridpoint16="350.72653,-5.209081"
     gridpoint17="381.60765,-3.1363769"
     gridpoint18="350.72653,22.300919"
     gridpoint19="381.44821,25.808572"
     gridpoint20x21="366.32653,-2.339183"
     gridpoint22x23="366.48597,25.489695"
     gridpoint24x26="335.12653,8.545919"
     gridpoint25x27="395.45383,8.7053577"
     gridpoint28x30="351.04541,10.299746"
     gridpoint29x31="380.81045,11.415817"
     gridpoint32x33x34x35="366.64541,12.531888"
     id="path-effect27599"
     is_visible="true"
     lpeversion="1"
     horizontal_mirror="false"
     vertical_mirror="false"
     perimetral="false"
     live_update="true" /><filter
     inkscape:collect="always"
     style="color-interpolation-filters:sRGB"
     id="filter3794"
     x="-0.038423748"
     y="-0.062329876"
     width="1.0768475"
     height="1.1246598"><feGaussianBlur
       inkscape:collect="always"
       stdDeviation="10.064327"
       id="feGaussianBlur3796" /></filter><filter
     inkscape:collect="always"
     style="color-interpolation-filters:sRGB"
     id="filter15528"
     x="-0.10999985"
     y="-0.11035552"
     width="1.2199997"
     height="1.220711"><feGaussianBlur
       inkscape:collect="always"
       stdDeviation="4.5431652"
       id="feGaussianBlur15530" /></filter><clipPath
     clipPathUnits="userSpaceOnUse"
     id="clipPath15584"><rect
       width="100"
       height="100"
       rx="50"
       fill="#4d0b39"
       id="rect15586"
       x="198.27945"
       y="-39.517487"
       style="stroke-width:1"
       d="m 248.95706,-38.800012 c 13.76152,-0.02189 26.18235,5.641928 35.07689,14.297807 4.49103,4.370529 8.11737,9.559067 10.63264,15.4941677 2.50924,5.9208765 3.88512,12.5252426 3.85202,19.4506913 -0.0331,6.924243 -1.47322,13.540763 -4.02265,19.755062 -2.53206,6.171993 -6.2112,12.05017 -10.66985,16.723328 -4.55721,4.776471 -9.72344,8.115191 -15.7604,10.206968 -5.88053,2.037576 -12.61689,2.876185 -19.46739,2.876185 -6.84493,0 -13.59121,-0.837753 -19.48635,-2.860872 -6.0472,-2.075306 -11.27039,-5.396934 -15.79112,-10.175124 -4.45475,-4.708452 -7.96412,-10.579883 -10.33058,-16.892983 -2.36486,-6.308812 -3.60577,-13.094625 -3.59475,-20.031162 0.011,-6.9417138 1.26985,-13.4375259 3.61119,-19.1645633 2.35083,-5.7502517 5.80627,-10.7724317 10.26282,-15.1061277 8.92615,-8.680089 21.74642,-14.551203 35.68753,-14.573377 z" /></clipPath><filter
     style="color-interpolation-filters:sRGB;"
     inkscape:label="Drop Shadow"
     id="filter26417"
     x="-0.192"
     y="-0.192"
     width="1.384"
     height="1.384"><feFlood
       flood-opacity="0.94902"
       flood-color="rgb(0,0,0)"
       result="flood"
       id="feFlood26407" /><feComposite
       in="flood"
       in2="SourceGraphic"
       operator="out"
       result="composite1"
       id="feComposite26409" /><feGaussianBlur
       in="composite1"
       stdDeviation="4"
       result="blur"
       id="feGaussianBlur26411" /><feOffset
       dx="0"
       dy="0"
       result="offset"
       id="feOffset26413" /><feComposite
       in="offset"
       in2="SourceGraphic"
       operator="atop"
       result="fbSourceGraphic"
       id="feComposite26415" /><feColorMatrix
       result="fbSourceGraphicAlpha"
       in="fbSourceGraphic"
       values="0 0 0 -1 0 0 0 0 -1 0 0 0 0 -1 0 0 0 0 1 0"
       id="feColorMatrix27145" /><feFlood
       id="feFlood27147"
       flood-opacity="0.94902"
       flood-color="rgb(0,0,0)"
       result="flood"
       in="fbSourceGraphic" /><feComposite
       in2="fbSourceGraphic"
       id="feComposite27149"
       in="flood"
       operator="out"
       result="composite1" /><feGaussianBlur
       id="feGaussianBlur27151"
       in="composite1"
       stdDeviation="4"
       result="blur" /><feOffset
       id="feOffset27153"
       dx="0"
       dy="0"
       result="offset" /><feComposite
       in2="fbSourceGraphic"
       id="feComposite27155"
       in="offset"
       operator="atop"
       result="composite2" /></filter><filter
     style="color-interpolation-filters:sRGB"
     inkscape:label="Drop Shadow"
     id="filter26417-5"
     x="-0.192"
     y="-0.192"
     width="1.384"
     height="1.384"><feFlood
       flood-opacity="0.94902"
       flood-color="rgb(0,0,0)"
       result="flood"
       id="feFlood26407-6" /><feComposite
       in="flood"
       in2="SourceGraphic"
       operator="out"
       result="composite1"
       id="feComposite26409-2" /><feGaussianBlur
       in="composite1"
       stdDeviation="4"
       result="blur"
       id="feGaussianBlur26411-9" /><feOffset
       dx="0"
       dy="0"
       result="offset"
       id="feOffset26413-1" /><feComposite
       in="offset"
       in2="SourceGraphic"
       operator="atop"
       result="fbSourceGraphic"
       id="feComposite26415-2" /><feColorMatrix
       result="fbSourceGraphicAlpha"
       in="fbSourceGraphic"
       values="0 0 0 -1 0 0 0 0 -1 0 0 0 0 -1 0 0 0 0 1 0"
       id="feColorMatrix27145-7" /><feFlood
       id="feFlood27147-0"
       flood-opacity="0.94902"
       flood-color="rgb(0,0,0)"
       result="flood"
       in="fbSourceGraphic" /><feComposite
       in2="fbSourceGraphic"
       id="feComposite27149-9"
       in="flood"
       operator="out"
       result="composite1" /><feGaussianBlur
       id="feGaussianBlur27151-3"
       in="composite1"
       stdDeviation="4"
       result="blur" /><feOffset
       id="feOffset27153-6"
       dx="0"
       dy="0"
       result="offset" /><feComposite
       in2="fbSourceGraphic"
       id="feComposite27155-0"
       in="offset"
       operator="atop"
       result="composite2" /></filter><filter
     style="color-interpolation-filters:sRGB;"
     inkscape:label="Drop Shadow"
     id="filter27820"
     x="-0.076923077"
     y="-0.087241003"
     width="1.1538462"
     height="1.174482"><feFlood
       flood-opacity="0.737255"
       flood-color="rgb(0,251,255)"
       result="flood"
       id="feFlood27810" /><feComposite
       in="flood"
       in2="SourceGraphic"
       operator="in"
       result="composite1"
       id="feComposite27812" /><feGaussianBlur
       in="composite1"
       stdDeviation="2"
       result="blur"
       id="feGaussianBlur27814" /><feOffset
       dx="0"
       dy="0"
       result="offset"
       id="feOffset27816" /><feComposite
       in="SourceGraphic"
       in2="offset"
       operator="over"
       result="composite2"
       id="feComposite27818" /></filter></defs><sodipodi:namedview
   id="namedview14"
   pagecolor="#ffffff"
   bordercolor="#000000"
   borderopacity="0.25"
   inkscape:showpageshadow="2"
   inkscape:pageopacity="0.0"
   inkscape:pagecheckerboard="0"
   inkscape:deskcolor="#d1d1d1"
   showgrid="false"
   inkscape:zoom="2.2693708"
   inkscape:cx="566.01591"
   inkscape:cy="278.93194"
   inkscape:window-width="3840"
   inkscape:window-height="2092"
   inkscape:window-x="1080"
   inkscape:window-y="0"
   inkscape:window-maximized="1"
   inkscape:current-layer="g195" />
<g
   id="g11">
	
	<g
   id="g9"
   style="fill:#4d0b39;fill-opacity:1"
   transform="matrix(0.97426281,0,0,0.97426281,8.235494,8.6692512)">
		<g
   id="g7"
   style="fill:#4d0b39;fill-opacity:1">
			<path
   style="fill:#4d0b39;fill-opacity:1"
   d="m 622.7,149.8 c -4.1,-4.1 -9.6,-4 -9.6,-4 0,0 -117.2,6.6 -177.9,8 -13.3,0.3 -26.5,0.6 -39.6,0.7 0,39.1 0,78.2 0,117.2 -5.5,-2.6 -11.1,-5.3 -16.6,-7.9 0,-36.4 -0.1,-109.2 -0.1,-109.2 -29,0.4 -89.2,-2.2 -89.2,-2.2 0,0 -141.4,-7.1 -156.8,-8.5 -9.8,-0.6 -22.5,-2.1 -39,1.5 -8.7,1.8 -33.5,7.4 -53.8,26.9 -45,40.1 -33.5,103.9 -32.1,113.5 1.7,11.7 6.9,44.2 31.7,72.5 45.8,56.1 144.4,54.8 144.4,54.8 0,0 12.1,28.9 30.6,55.5 25,33.1 50.7,58.9 75.7,62 63,0 188.9,-0.1 188.9,-0.1 0,0 12,0.1 28.3,-10.3 14,-8.5 26.5,-23.4 26.5,-23.4 0,0 12.9,-13.8 30.9,-45.3 5.5,-9.7 10.1,-19.1 14.1,-28 0,0 55.2,-117.1 55.2,-231.1 -1.1,-34.5 -9.6,-40.6 -11.6,-42.6 z M 125.6,353.9 c -25.9,-8.5 -36.9,-18.7 -36.9,-18.7 0,0 -19.1,-13.4 -28.7,-39.8 -16.5,-44.2 -1.4,-71.2 -1.4,-71.2 0,0 8.4,-22.5 38.5,-30 13.8,-3.7 31,-3.1 31,-3.1 0,0 7.1,59.4 15.7,94.2 7.2,29.2 24.8,77.7 24.8,77.7 0,0 -26.1,-3.1 -43,-9.1 z m 300.3,107.6 c 0,0 -6.1,14.5 -19.6,15.4 -5.8,0.4 -10.3,-1.2 -10.3,-1.2 0,0 -0.3,-0.1 -5.3,-2.1 l -112.9,-55 c 0,0 -10.9,-5.7 -12.8,-15.6 -2.2,-8.1 2.7,-18.1 2.7,-18.1 L 322,273 c 0,0 4.8,-9.7 12.2,-13 0.6,-0.3 2.3,-1 4.5,-1.5 8.1,-2.1 18,2.8 18,2.8 L 467.4,315 c 0,0 12.6,5.7 15.3,16.2 1.9,7.4 -0.5,14 -1.8,17.2 -6.3,15.4 -55,113.1 -55,113.1 z"
   id="path3" />
			<path
   style="fill:#4d0b39;fill-opacity:1"
   d="m 326.8,380.1 c -8.2,0.1 -15.4,5.8 -17.3,13.8 -1.9,8 2,16.3 9.1,20 7.7,4 17.5,1.8 22.7,-5.4 5.1,-7.1 4.3,-16.9 -1.8,-23.1 l 24,-49.1 c 1.5,0.1 3.7,0.2 6.2,-0.5 4.1,-0.9 7.1,-3.6 7.1,-3.6 4.2,1.8 8.6,3.8 13.2,6.1 4.8,2.4 9.3,4.9 13.4,7.3 0.9,0.5 1.8,1.1 2.8,1.9 1.6,1.3 3.4,3.1 4.7,5.5 1.9,5.5 -1.9,14.9 -1.9,14.9 -2.3,7.6 -18.4,40.6 -18.4,40.6 -8.1,-0.2 -15.3,5 -17.7,12.5 -2.6,8.1 1.1,17.3 8.9,21.3 7.8,4 17.4,1.7 22.5,-5.3 5,-6.8 4.6,-16.3 -1.1,-22.6 1.9,-3.7 3.7,-7.4 5.6,-11.3 5,-10.4 13.5,-30.4 13.5,-30.4 0.9,-1.7 5.7,-10.3 2.7,-21.3 -2.5,-11.4 -12.6,-16.7 -12.6,-16.7 -12.2,-7.9 -29.2,-15.2 -29.2,-15.2 0,0 0,-4.1 -1.1,-7.1 -1.1,-3.1 -2.8,-5.1 -3.9,-6.3 4.7,-9.7 9.4,-19.3 14.1,-29 -4.1,-2 -8.1,-4 -12.2,-6.1 -4.8,9.8 -9.7,19.7 -14.5,29.5 -6.7,-0.1 -12.9,3.5 -16.1,9.4 -3.4,6.3 -2.7,14.1 1.9,19.8 -8.2,16.8 -16.4,33.6 -24.6,50.4 z"
   id="path5" />
		</g>
	</g>
<g
   id="g298"
   style="fill:#00f0f0;fill-opacity:1"
   transform="matrix(0.97426281,0,0,0.97426281,8.235494,8.6692512)">
		<g
   id="g296"
   style="fill:#00f0f0;fill-opacity:1">
			<path
   style="fill:#00f0f0;fill-opacity:1"
   d="m 622.7,149.8 c -4.1,-4.1 -9.6,-4 -9.6,-4 0,0 -117.2,6.6 -177.9,8 -13.3,0.3 -26.5,0.6 -39.6,0.7 0,39.1 0,78.2 0,117.2 -5.5,-2.6 -11.1,-5.3 -16.6,-7.9 0,-36.4 -0.1,-109.2 -0.1,-109.2 -29,0.4 -89.2,-2.2 -89.2,-2.2 0,0 -141.4,-7.1 -156.8,-8.5 -9.8,-0.6 -22.5,-2.1 -39,1.5 -8.7,1.8 -33.5,7.4 -53.8,26.9 -45,40.1 -33.5,103.9 -32.1,113.5 1.7,11.7 6.9,44.2 31.7,72.5 45.8,56.1 144.4,54.8 144.4,54.8 0,0 12.1,28.9 30.6,55.5 25,33.1 50.7,58.9 75.7,62 63,0 188.9,-0.1 188.9,-0.1 0,0 12,0.1 28.3,-10.3 14,-8.5 26.5,-23.4 26.5,-23.4 0,0 12.9,-13.8 30.9,-45.3 5.5,-9.7 10.1,-19.1 14.1,-28 0,0 55.2,-117.1 55.2,-231.1 -1.1,-34.5 -9.6,-40.6 -11.6,-42.6 z M 125.6,353.9 c -25.9,-8.5 -36.9,-18.7 -36.9,-18.7 0,0 -19.1,-13.4 -28.7,-39.8 -16.5,-44.2 -1.4,-71.2 -1.4,-71.2 0,0 8.4,-22.5 38.5,-30 13.8,-3.7 31,-3.1 31,-3.1 0,0 7.1,59.4 15.7,94.2 7.2,29.2 24.8,77.7 24.8,77.7 0,0 -26.1,-3.1 -43,-9.1 z m 300.3,107.6 c 0,0 -6.1,14.5 -19.6,15.4 -5.8,0.4 -10.3,-1.2 -10.3,-1.2 0,0 -0.3,-0.1 -5.3,-2.1 l -112.9,-55 c 0,0 -10.9,-5.7 -12.8,-15.6 -2.2,-8.1 2.7,-18.1 2.7,-18.1 L 322,273 c 0,0 4.8,-9.7 12.2,-13 0.6,-0.3 2.3,-1 4.5,-1.5 8.1,-2.1 18,2.8 18,2.8 L 467.4,315 c 0,0 12.6,5.7 15.3,16.2 1.9,7.4 -0.5,14 -1.8,17.2 -6.3,15.4 -55,113.1 -55,113.1 z"
   id="path292" />
			<path
   style="fill:#00f0f0;fill-opacity:1"
   d="m 326.8,380.1 c -8.2,0.1 -15.4,5.8 -17.3,13.8 -1.9,8 2,16.3 9.1,20 7.7,4 17.5,1.8 22.7,-5.4 5.1,-7.1 4.3,-16.9 -1.8,-23.1 l 24,-49.1 c 1.5,0.1 3.7,0.2 6.2,-0.5 4.1,-0.9 7.1,-3.6 7.1,-3.6 4.2,1.8 8.6,3.8 13.2,6.1 4.8,2.4 9.3,4.9 13.4,7.3 0.9,0.5 1.8,1.1 2.8,1.9 1.6,1.3 3.4,3.1 4.7,5.5 1.9,5.5 -1.9,14.9 -1.9,14.9 -2.3,7.6 -18.4,40.6 -18.4,40.6 -8.1,-0.2 -15.3,5 -17.7,12.5 -2.6,8.1 1.1,17.3 8.9,21.3 7.8,4 17.4,1.7 22.5,-5.3 5,-6.8 4.6,-16.3 -1.1,-22.6 1.9,-3.7 3.7,-7.4 5.6,-11.3 5,-10.4 13.5,-30.4 13.5,-30.4 0.9,-1.7 5.7,-10.3 2.7,-21.3 -2.5,-11.4 -12.6,-16.7 -12.6,-16.7 -12.2,-7.9 -29.2,-15.2 -29.2,-15.2 0,0 0,-4.1 -1.1,-7.1 -1.1,-3.1 -2.8,-5.1 -3.9,-6.3 4.7,-9.7 9.4,-19.3 14.1,-29 -4.1,-2 -8.1,-4 -12.2,-6.1 -4.8,9.8 -9.7,19.7 -14.5,29.5 -6.7,-0.1 -12.9,3.5 -16.1,9.4 -3.4,6.3 -2.7,14.1 1.9,19.8 -8.2,16.8 -16.4,33.6 -24.6,50.4 z"
   id="path294" />
		</g>
	</g><g
   id="g3792"
   style="mix-blend-mode:normal;fill:#00f0f0;fill-opacity:1;filter:url(#filter3794)"
   transform="matrix(0.97426281,0,0,0.97426281,8.235494,8.6692512)">
		<g
   id="g3790"
   style="fill:#00f0f0;fill-opacity:1">
			<path
   style="fill:#00f0f0;fill-opacity:1"
   d="m 622.7,149.8 c -4.1,-4.1 -9.6,-4 -9.6,-4 0,0 -117.2,6.6 -177.9,8 -13.3,0.3 -26.5,0.6 -39.6,0.7 0,39.1 0,78.2 0,117.2 -5.5,-2.6 -11.1,-5.3 -16.6,-7.9 0,-36.4 -0.1,-109.2 -0.1,-109.2 -29,0.4 -89.2,-2.2 -89.2,-2.2 0,0 -141.4,-7.1 -156.8,-8.5 -9.8,-0.6 -22.5,-2.1 -39,1.5 -8.7,1.8 -33.5,7.4 -53.8,26.9 -45,40.1 -33.5,103.9 -32.1,113.5 1.7,11.7 6.9,44.2 31.7,72.5 45.8,56.1 144.4,54.8 144.4,54.8 0,0 12.1,28.9 30.6,55.5 25,33.1 50.7,58.9 75.7,62 63,0 188.9,-0.1 188.9,-0.1 0,0 12,0.1 28.3,-10.3 14,-8.5 26.5,-23.4 26.5,-23.4 0,0 12.9,-13.8 30.9,-45.3 5.5,-9.7 10.1,-19.1 14.1,-28 0,0 55.2,-117.1 55.2,-231.1 -1.1,-34.5 -9.6,-40.6 -11.6,-42.6 z M 125.6,353.9 c -25.9,-8.5 -36.9,-18.7 -36.9,-18.7 0,0 -19.1,-13.4 -28.7,-39.8 -16.5,-44.2 -1.4,-71.2 -1.4,-71.2 0,0 8.4,-22.5 38.5,-30 13.8,-3.7 31,-3.1 31,-3.1 0,0 7.1,59.4 15.7,94.2 7.2,29.2 24.8,77.7 24.8,77.7 0,0 -26.1,-3.1 -43,-9.1 z m 300.3,107.6 c 0,0 -6.1,14.5 -19.6,15.4 -5.8,0.4 -10.3,-1.2 -10.3,-1.2 0,0 -0.3,-0.1 -5.3,-2.1 l -112.9,-55 c 0,0 -10.9,-5.7 -12.8,-15.6 -2.2,-8.1 2.7,-18.1 2.7,-18.1 L 322,273 c 0,0 4.8,-9.7 12.2,-13 0.6,-0.3 2.3,-1 4.5,-1.5 8.1,-2.1 18,2.8 18,2.8 L 467.4,315 c 0,0 12.6,5.7 15.3,16.2 1.9,7.4 -0.5,14 -1.8,17.2 -6.3,15.4 -55,113.1 -55,113.1 z"
   id="path3786" />
			<path
   style="fill:#00f0f0;fill-opacity:1"
   d="m 326.8,380.1 c -8.2,0.1 -15.4,5.8 -17.3,13.8 -1.9,8 2,16.3 9.1,20 7.7,4 17.5,1.8 22.7,-5.4 5.1,-7.1 4.3,-16.9 -1.8,-23.1 l 24,-49.1 c 1.5,0.1 3.7,0.2 6.2,-0.5 4.1,-0.9 7.1,-3.6 7.1,-3.6 4.2,1.8 8.6,3.8 13.2,6.1 4.8,2.4 9.3,4.9 13.4,7.3 0.9,0.5 1.8,1.1 2.8,1.9 1.6,1.3 3.4,3.1 4.7,5.5 1.9,5.5 -1.9,14.9 -1.9,14.9 -2.3,7.6 -18.4,40.6 -18.4,40.6 -8.1,-0.2 -15.3,5 -17.7,12.5 -2.6,8.1 1.1,17.3 8.9,21.3 7.8,4 17.4,1.7 22.5,-5.3 5,-6.8 4.6,-16.3 -1.1,-22.6 1.9,-3.7 3.7,-7.4 5.6,-11.3 5,-10.4 13.5,-30.4 13.5,-30.4 0.9,-1.7 5.7,-10.3 2.7,-21.3 -2.5,-11.4 -12.6,-16.7 -12.6,-16.7 -12.2,-7.9 -29.2,-15.2 -29.2,-15.2 0,0 0,-4.1 -1.1,-7.1 -1.1,-3.1 -2.8,-5.1 -3.9,-6.3 4.7,-9.7 9.4,-19.3 14.1,-29 -4.1,-2 -8.1,-4 -12.2,-6.1 -4.8,9.8 -9.7,19.7 -14.5,29.5 -6.7,-0.1 -12.9,3.5 -16.1,9.4 -3.4,6.3 -2.7,14.1 1.9,19.8 -8.2,16.8 -16.4,33.6 -24.6,50.4 z"
   id="path3788" />
		</g>
	</g><g
   id="g195"
   transform="matrix(0.97713729,0,0,0.97713729,166.76144,66.43038)"><g
     id="g27840"
     transform="translate(101.84074,165.55216)"
     inkscape:path-effect="#path-effect27844"><path
       width="100"
       height="100"
       rx="50"
       fill="#4d0b39"
       id="rect183-3"
       x="198.27946"
       y="-39.517487"
       style="filter:url(#filter15528)"
       clip-path="url(#clipPath15584)"
       d="m 248.95707,-38.800012 c 13.76152,-0.02189 26.18236,5.641927 35.0769,14.297806 4.49103,4.370529 8.11737,9.559067 10.63264,15.4941681 2.50924,5.9208767 3.88511,12.5252432 3.85201,19.4506919 -0.0331,6.924243 -1.47322,13.540762 -4.02264,19.755061 -2.53207,6.171992 -6.2112,12.050169 -10.66985,16.723328 -4.55722,4.776471 -9.72345,8.115192 -15.76041,10.206969 -5.88053,2.037576 -12.61688,2.876185 -19.46738,2.876185 -6.84493,0 -13.59121,-0.837753 -19.48635,-2.860872 -6.04721,-2.075306 -11.2704,-5.396933 -15.79112,-10.175122 -4.45475,-4.708452 -7.96412,-10.579882 -10.33059,-16.892984 -2.36485,-6.308811 -3.60576,-13.094625 -3.59474,-20.031161 0.011,-6.9417146 1.26985,-13.4375264 3.61119,-19.1645637 2.35083,-5.7502523 5.80627,-10.7724313 10.26281,-15.1061283 8.92616,-8.68009 21.74642,-14.551204 35.68753,-14.573378 z"
       sodipodi:type="rect" /><path
       fill="#3fff19"
       d="m 226.47937,41.405667 c -1.97852,-0.265785 -3.72076,-0.84242 -5.21931,-1.738477 -1.4999,-0.896869 -2.65544,-2.098303 -3.47096,-3.611672 -0.81548,-1.513291 -1.19899,-3.281214 -1.15979,-5.29834 0.0354,-1.823755 0.45164,-3.759781 1.24012,-5.808524 0.79083,-2.054841 2.18672,-4.071603 4.1932,-6.11344 2.02446,-2.060136 4.85196,-3.896491 8.59831,-5.815461 -0.0635,-6.7297364 -0.36371,-21.4387508 -0.36371,-21.4387508 -3.0088,-0.3140682 -9.05844,-1.1527241 -9.05844,-1.1527241 -0.0294,-1.8103271 -0.1167,-5.4906311 -0.1167,-5.4906311 2.71291,0.330894 5.91997,0.692826 9.24112,0.988654 3.07705,0.274084 5.53394,0.418403 5.53394,0.418403 0.13001,8.4056621 0.39663,20.8344273 0.47967,30.395132 0.0832,9.578701 -0.008,16.352856 -0.008,16.352856 -0.0215,2.000525 -0.4379,3.646935 -1.24573,4.970873 -0.80681,1.322271 -1.94772,2.272921 -3.41356,2.858416 -1.46381,0.584686 -3.21445,0.754528 -5.23061,0.483686 z m -0.31026,-4.733105 c 0.84634,0.133003 1.60667,0.07311 2.2775,-0.175395 0.671,-0.248563 1.1949,-0.713772 1.56897,-1.396683 0.37433,-0.68337 0.56919,-1.56309 0.5832,-2.648772 0.065,-4.25942 0.0504,-13.340182 0.0504,-13.340182 -2.59792,1.60817 -4.48505,3.101023 -5.70575,4.635371 -1.21236,1.523867 -1.98953,2.929585 -2.32819,4.245402 -0.33816,1.313859 -0.51623,2.385986 -0.5301,3.227988 -0.0265,1.606196 0.37236,2.872616 1.2039,3.804742 0.8308,0.931303 1.79148,1.476454 2.88009,1.647529 z m 24.99049,-5.216515 c -1.88445,0.0597 -5.69524,-0.0085 -5.69524,-0.0085 0.046,-7.836044 -0.0254,-15.850101 -0.19428,-26.9600597 -0.14678,-9.6570066 -0.26338,-17.8100783 -0.26338,-17.8100783 1.92584,0.03007 5.74111,-0.04402 5.74111,-0.04402 0.0483,4.4201103 0.0914,7.6802446 0.16083,12.85366895 0.0567,4.22726805 0.0978,7.50838075 0.0978,7.50838075 4.18086,-0.1255697 8.58691,-0.5105663 13.64805,-1.2387163 4.53824,-0.6529201 8.16336,-1.3469975 8.16336,-1.3469975 -0.0182,-6.3923388 -0.0713,-19.5043589 -0.0713,-19.5043589 1.91568,-0.208737 5.72199,-0.661789 5.72199,-0.661789 1.3e-4,-0.771434 0.0365,26.871696 0.0364,27.64313 0.005,9.026701 -0.0218,15.862046 -0.0218,15.862046 -1.86914,0.37956 -5.62935,1.09993 -5.62935,1.09993 0.0156,-3.343386 0.0185,-7.404175 0.01,-11.7374 -0.008,-4.015162 -0.0238,-7.317431 -0.0238,-7.317431 -4.00693,0.772108 -8.65674,1.598785 -13.58336,2.134651 -4.53698,0.493484 -8.1832,0.57981 -8.1832,0.57981 0.0752,6.81303 0.11082,12.946198 0.0865,18.947742 z"
       id="path185-7"
       inkscape:original-d="m 225.66689,37.969183 v 0 q -2.94,0 -5.19,-1.08 -2.25,-1.08 -3.51,-3.24 -1.26,-2.16 -1.26,-5.28 v 0 q 0,-2.82 1.14,-6.18 1.14,-3.36 4.14,-7.02 3,-3.66 8.64,-7.2599995 v 0 -19.8600005 h -9.06 v -5.1 h 14.76 v 44.46 q 0,3.24 -1.17,5.61 -1.17,2.37 -3.33,3.66 -2.16,1.29 -5.16,1.29 z m -0.42,-5.16 v 0 q 1.26,0 2.25,-0.57 0.99,-0.57 1.53,-1.77 0.54,-1.2 0.54,-2.94 v 0 -13.68 q -3.9,3 -5.7,5.67 -1.8,2.67 -2.28,4.8 -0.48,2.13 -0.48,3.45 v 0 q 0,2.52 1.26,3.78 1.26,1.26 2.88,1.26 z m 24.96,-7.86 h -5.76 v -42 h 5.76 V 1.0091835 h 22.14 V -17.050817 h 5.76 v 42 h -5.76 V 6.1091835 h -22.14 z" /></g></g></g>
</svg>
